<svg width="400" height="120" xmlns="http://www.w3.org/2000/svg">
 <style type="text/css">.st0{fill:none;}
	.st1{fill:#00CA9C;}
	.st2{fill:#C44611;}
	.st3{fill:#007FB0;}
	.st4{fill:#0019DF;}
	.st5{fill:#3F7A86;}
	.st6{fill:none;stroke:#007F11;stroke-width:1.5;stroke-linecap:round;}
	.st7{fill:none;stroke:#C44611;stroke-width:2;stroke-linecap:round;}
	.st8{fill:none;stroke:#2AFFFC;}
	.st9{fill:#008BFF;}
	.st10{fill:none;stroke:#008BFF;}
	.st11{fill:#3FFFF6;}
	.st12{fill:#FFFFFF;}
	.st13{opacity:0.75;fill:none;stroke:#34A9FF;stroke-width:5;enable-background:new    ;}
	.st14{fill:#3578C8;}
	.st15{fill:none;stroke:#008BFF;stroke-width:5;}
	.st16{fill:#007FFF;}
	.st17{opacity:0.5;fill:#00EADB;enable-background:new    ;}
	.st18{opacity:0.8;fill:#00AEB3;enable-background:new    ;}
	.st19{opacity:0.9;fill:#007FFF;enable-background:new    ;}
	.st20{fill:#00CBD4;}
	.st21{fill:#00C2DF;}
	.st22{fill:#7F5D00;stroke:#000000;stroke-width:2.000000e-02;}
	.st23{fill:#007F11;stroke:#000000;stroke-width:2.000000e-02;}</style>

 <g>
  <title>background</title>
  <rect height="402" width="582" class="st0" y="-1" x="-1" id="canvas_background"/>
 </g>
 <title>Layer 1</title>
 <g>
  <title>Layer 1</title>
  <path d="m16.5,8.5c0.299999,0.1 0.4,0.5 0.200001,0.8c-0.1,0.099999 -0.1,0.2 -0.200001,0.2l-11.4,7c-0.5,0.299999 -0.8,0.1 -0.8,-0.5l0,-14c0,-0.5 0.4,-0.8 0.8,-0.5l11.4,7z" class="st1" id="svg_1"/>
  <path d="m24,1l2.200001,0c0.599998,0 1,0.4 1,1l0,14c0,0.6 -0.400002,1 -1,1l-2.200001,0c-0.6,0 -1,-0.4 -1,-1l0,-14c0,-0.5 0.4,-1 1,-1zm9.799999,0l2.200001,0c0.599998,0 1,0.4 1,1l0,14c0,0.6 -0.400002,1 -1,1l-2.200001,0c-0.599998,0 -1,-0.4 -1,-1l0,-14c0,-0.5 0.400002,-1 1,-1z" class="st2" id="svg_2"/>
  <path d="m81,1.4c0,-0.6 0.400002,-1 1,-1l5.400002,0c0.599998,0 0.699997,0.3 0.299995,0.7l-6,6c-0.399994,0.4 -0.699997,0.3 -0.699997,-0.3c0,0 0,-5.4 0,-5.4zm0,15.800001c0,0.599998 0.400002,1 1,1l5.400002,0c0.599998,0 0.699997,-0.300001 0.299995,-0.700001l-6,-6c-0.399994,-0.4 -0.699997,-0.3 -0.699997,0.3l0,5.400001zm17.800003,-15.800001c0,-0.6 -0.400002,-1 -1,-1l-5.400002,0c-0.599998,0 -0.700005,0.3 -0.300003,0.7l6,6c0.400002,0.4 0.700005,0.3 0.700005,-0.3c0,0 0,-5.4 0,-5.4zm0,15.800001c0,0.599998 -0.400002,1 -1,1l-5.400002,0c-0.599998,0 -0.700005,-0.300001 -0.300003,-0.700001l6,-6c0.400002,-0.4 0.700005,-0.3 0.700005,0.3l0,5.400001z" class="st3" id="svg_3"/>
  <path d="m112.699997,5c0,0.6 0.400002,1 1,1l4.100006,0c0.599998,0 0.699997,-0.3 0.299995,-0.7l-4.699997,-4.7c-0.400002,-0.4 -0.700005,-0.3 -0.700005,0.3c0,0 0,4.1 0,4.1zm-7.099998,1c0.599998,0 1,-0.4 1,-1l0,-4.1c0,-0.6 -0.299995,-0.7 -0.699997,-0.3l-4.700005,4.7c-0.399994,0.4 -0.299995,0.7 0.300003,0.7c0,0 4.099998,0 4.099998,0zm1,7.1c0,-0.6 -0.400002,-1 -1,-1l-4.099998,0c-0.599998,0 -0.699997,0.299999 -0.300003,0.7l4.700005,4.7c0.400002,0.4 0.699997,0.299999 0.699997,-0.299999l0,-4.1zm7.099998,-1c-0.599998,0 -1,0.4 -1,1l0,4.1c0,0.5 0.300003,0.699999 0.700005,0.299999l4.699997,-4.7c0.400002,-0.400001 0.300003,-0.7 -0.299995,-0.7l-4.100006,0z" class="st4" id="svg_4"/>
  <path d="m67,5.8c-0.5,0.4 -1.199997,0.6 -1.800003,0.6l-3.199997,0c-0.599998,0 -1,0.4 -1,1l0,5.7c0,0.599999 0.400002,1 1,1l4.199997,0c0.300003,0.2 0.5,0.4 0.800003,0.599999l3.5,2.599999c0.400002,0.300001 0.800003,0.1 0.800003,-0.4l0,-13.4c0,-0.5 -0.400002,-0.7 -0.800003,-0.4l-3.5,2.7z" class="st5" id="svg_5"/>
  <path d="m73.900002,2.5c0,0 3.900002,-0.8 3.900002,7.7s-3.900002,7.8 -3.900002,7.8" class="st6" id="svg_6"/>
  <path d="m72.599998,6.4c0,0 2.599998,-0.4 2.599998,3.8s-2.599998,3.900001 -2.599998,3.900001" class="st6" id="svg_7"/>
  <path d="m47,5.8c-0.5,0.4 -1.200001,0.6 -1.799999,0.6l-3.200001,0c-0.599998,0 -1,0.4 -1,1l0,5.7c0,0.599999 0.400002,1 1,1l4.200001,0c0.299999,0.2 0.5,0.4 0.799999,0.599999l3.5,2.599999c0.400002,0.300001 0.799999,0.1 0.799999,-0.4l0,-13.4c0,-0.5 -0.399998,-0.7 -0.799999,-0.4l-3.5,2.7z" class="st5" id="svg_8"/>
  <path d="m52.799999,7l5.400002,5.4m-5.400002,0l5.400002,-5.4" class="st7" id="svg_9"/>
  <path d="m128.699997,8.6c-6.199997,-4.2 -6.5,7.799999 0,3.9m6.5,-3.9c-6.199997,-4.2 -6.5,7.799999 0,3.9" class="st8" id="svg_10"/>
  <path d="m122.199997,3.4l15.699997,0l0,13.1l-15.699997,0c0,0 0,-13.1 0,-13.1zm-1.399994,-1.4l0,15.700001l18.300003,0l0,-15.700001l-18.300003,0z" class="st9" id="svg_11"/>
  <path d="m143.199997,3l14,0c1.100006,0 2,0.9 2,2l0,10c0,1.1 -0.899994,2 -2,2l-14,0c-1.099991,0 -2,-0.9 -2,-2l0,-10c0,-1.1 0.900009,-2 2,-2z" class="st10" id="svg_12"/>
  <path d="m146.399994,13.8c-0.800003,0 -1.600006,-0.400001 -2.100006,-1c-1.099991,-1.400001 -1,-3.400001 0.100006,-4.8c0.5,-0.6 2,-1.7 4.599991,0.2l-0.599991,0.8c-1.400009,-1 -2.600006,-1.1 -3.300003,-0.3c-0.800003,1 -0.800003,2.400001 -0.100006,3.5c0.700012,0.900001 1.900009,0.8 3.400009,-0.099999l0.5,0.9c-0.699997,0.5 -1.599991,0.7 -2.5,0.8l0,0zm7.5,0c-0.800003,0 -1.600006,-0.400001 -2.100006,-1c-1.099991,-1.400001 -1,-3.400001 0.100006,-4.8c0.5,-0.6 2,-1.7 4.599991,0.2l-0.499985,0.8c-1.399994,-1 -2.600006,-1.1 -3.300003,-0.3c-0.800003,1 -0.800003,2.400001 -0.099991,3.5c0.699997,0.900001 1.899994,0.8 3.399994,-0.099999l0.5,0.9c-0.800003,0.5 -1.699997,0.7 -2.600006,0.8l0,0z" class="st11" id="svg_13"/>
  <path d="m60.299999,77c0.600002,0.199997 0.799999,0.800003 0.600002,1.400002c-0.100002,0.299995 -0.300003,0.5 -0.600002,0.599998l-30.299999,17.5c-1,0.599998 -1.700001,0.099998 -1.700001,-1l0,-35c0,-1.099998 0.800001,-1.5 1.700001,-1l30.299999,17.5z" class="st12" id="svg_15"/>
  <path d="m2.5,79c0,-20.700001 16.799999,-37.5 37.5,-37.5s37.5,16.799999 37.5,37.5s-16.799999,37.5 -37.5,37.5s-37.5,-16.800003 -37.5,-37.5z" class="st13" id="svg_16"/>
  <path d="m140.300003,77c0.599991,0.199997 0.800003,0.800003 0.599991,1.400002c-0.099991,0.299995 -0.299988,0.5 -0.599991,0.599998l-30.300003,17.5c-1,0.599998 -1.699997,0.099998 -1.699997,-1l0,-35c0,-1.099998 0.799995,-1.5 1.699997,-1c7.300003,4.200001 14.599998,8.400002 21.800003,12.599998c2.899994,1.599998 5.699997,3.300003 8.5,4.900002z" class="st14" id="svg_17"/>
  <path d="m82.5,79c0,-20.700001 16.800003,-37.5 37.5,-37.5s37.5,16.799999 37.5,37.5s-16.800003,37.5 -37.5,37.5s-37.5,-16.800003 -37.5,-37.5z" class="st15" id="svg_18"/>
  <circle r="8.1" cy="47.1" cx="201.9" class="st16" id="svg_19"/>
  <circle r="5" cy="79" cx="233.9" class="st17" id="svg_20"/>
  <circle r="6" cy="110.9" cx="201.9" class="st18" id="svg_21"/>
  <circle r="7" cy="79" cx="170.1" class="st18" id="svg_22"/>
  <circle r="7.5" cy="56.3" cx="178.2" class="st19" id="svg_23"/>
  <circle r="4.5" cy="56.1" cx="226.3" class="st17" id="svg_24"/>
  <circle r="5.5" cy="102.8" cx="225.8" class="st17" id="svg_25"/>
  <circle r="6.5" cy="102.8" cx="178.2" class="st18" id="svg_26"/>
  <path d="m178,9.4c0,0.400001 -0.399994,0.700001 -0.899994,0.700001c-0.100006,0 -0.200012,0 -0.200012,-0.1l-4.899994,-1.8c-0.5,-0.2 -0.600006,-0.6 -0.100006,-0.8l6.200012,-3.6c0.5,-0.3 0.799988,-0.1 0.699997,0.5l-0.800003,5.099999c0,0 0,0 0,0z" class="st9" id="svg_27"/>
  <path d="m169.399994,15.9c-1,0 -2,-0.2 -2.900009,-0.7c-2,-1 -3.199997,-3 -3.199997,-5.2c0.100006,-3.4 2.900009,-6 6.300003,-6c2.5,0.1 4.800003,1.7 5.600006,4.1l0.099991,-0.1l2.100006,1.1c-0.600006,-4.400001 -4.699997,-7.5 -9.100006,-6.9c-3.899994,0.6 -6.899994,3.9 -7,7.9c0,2.9 1.699997,5.599999 4.300003,7c1.199997,0.6 2.5,0.9 3.800003,1c2.599991,0 5,-1.200001 6.599991,-3.3l-1.799988,-0.900001c-1.199997,1.200001 -3,2 -4.800003,2l0,0z" class="st9" id="svg_28"/>
  <path d="m183.399994,3.2c0.800003,0 1.5,0.7 1.5,1.5s-0.699997,1.5 -1.5,1.5s-1.5,-0.7 -1.5,-1.5c0,-0.9 0.700012,-1.5 1.5,-1.5zm5.100006,0l8.5,0c0.899994,0 1.5,0.7 1.5,1.5s-0.699997,1.5 -1.5,1.5l-8.5,0c-0.899994,0 -1.5,-0.7 -1.5,-1.5c-0.100006,-0.9 0.600006,-1.5 1.5,-1.5zm-5.100006,5c0.800003,0 1.5,0.7 1.5,1.5s-0.699997,1.5 -1.5,1.5s-1.5,-0.7 -1.5,-1.5c0,-0.9 0.700012,-1.5 1.5,-1.5zm5.100006,0l8.5,0c0.899994,0 1.5,0.7 1.5,1.5s-0.699997,1.5 -1.5,1.5l-8.5,0c-0.899994,0 -1.5,-0.7 -1.5,-1.5c-0.100006,-0.9 0.600006,-1.5 1.5,-1.5zm-5.100006,5c0.800003,0 1.5,0.7 1.5,1.5s-0.699997,1.500001 -1.5,1.500001s-1.5,-0.700001 -1.5,-1.500001c0,-0.9 0.700012,-1.5 1.5,-1.5zm5.100006,0l8.5,0c0.899994,0 1.5,0.7 1.5,1.5s-0.699997,1.500001 -1.5,1.500001l-8.5,0c-0.899994,0 -1.5,-0.700001 -1.5,-1.500001c-0.100006,-0.9 0.600006,-1.5 1.5,-1.5z" class="st20" id="svg_29"/>
  <path d="m60.299999,77c0.600002,0.199997 0.799999,0.800003 0.600002,1.400002c-0.100002,0.299995 -0.300003,0.5 -0.600002,0.599998l-30.299999,17.5c-1,0.599998 -1.700001,0.099998 -1.700001,-1l0,-35c0,-1.099998 0.800001,-1.5 1.700001,-1c7.299999,4.200001 14.599998,8.400002 21.799999,12.599998c2.900002,1.599998 5.700001,3.300003 8.5,4.900002z" class="st21" id="svg_45"/>
  <path d="m51,15.5" class="st22" id="svg_74_3_"/>
  <path d="m51,15.9" class="st22" id="svg_74_2_"/>
  <path d="m52.599998,14" class="st23" id="svg_76_3_"/>
  <path d="m51.200001,14.7" class="st5" id="svg_80_9_"/>
  <path d="m51.299999,16.9l0,0c-0.200001,0 -0.099998,0.1 -0.099998,0.1" class="st5" id="svg_80_8_"/>
  <path d="m51.299999,16.6" class="st5" id="svg_80_6_"/>
  <path d="m51.299999,16.299999" class="st5" id="svg_80_5_"/>
  <path d="m51.299999,16" class="st5" id="svg_80_4_"/>
  <path d="m51.299999,15.7" class="st5" id="svg_80_3_"/>
  <path d="m51.299999,15.2" class="st5" id="svg_80_2_"/>
  <path d="m51.299999,14.8" class="st5" id="svg_80_1_"/>
  <path d="m62,6.5" class="st5" id="svg_87_10_"/>
  <path d="m64.199997,6.4c0,0.1 0,0.1 0,0c0.100006,0.2 0.300003,0 0.300003,0.1c0,0 -0.099998,0.1 0,0.1c0,0.1 0.199997,0 0.199997,0" class="st5" id="svg_87_9_"/>
  <path d="m63.700001,6.4l0,0" class="st5" id="svg_87_7_"/>
  <path d="m63.400002,6.5c0,0 0.199997,-0.1 0.199997,-0.2" class="st5" id="svg_87_6_"/>
  <path d="m63.299999,6.3" class="st5" id="svg_87_5_"/>
  <path d="m63.099998,6.5" class="st5" id="svg_87_4_"/>
  <path d="m62.700001,6.3" class="st5" id="svg_87_3_"/>
  <path d="m62.400002,6.3c0.099998,0.1 0.199997,0.2 0.199997,0.1" class="st5" id="svg_87_2_"/>
  <path d="m62.200001,6.4l0,0" class="st5" id="svg_87_1_"/>
  <path d="m74,17.200001" class="st23" id="svg_92_5_"/>
  <path d="m74.099998,15.5" class="st23" id="svg_92_1_"/>
  <path d="m134.5,15.3" class="st23" id="svg_113_2_"/>
 </g>
</svg>